<svg width="38" height="35" viewBox="0 0 38 35" fill="none" xmlns="http://www.w3.org/2000/svg">
<path d="M37.6267 29.5261C37.4335 29.5132 37.3433 29.539 37.3433 29.6163C36.7247 32.7196 34.6759 34.2778 31.2225 34.2778L24.509 34.2906C24.2513 34.2906 23.9935 34.2906 23.7616 34.2906C23.7616 34.3035 23.7616 34.3293 23.7616 34.3422C23.7745 34.7413 23.1044 34.8572 22.7565 34.6641C22.705 34.677 22.6663 34.6898 22.6148 34.7027C22.357 34.7671 22.0993 34.7542 21.8545 34.6898C21.5323 34.7929 21.1973 34.8572 20.8752 34.8701C20.8494 34.9087 20.8236 34.9603 20.7979 34.9989L36.6861 34.9731C36.9953 34.9731 37.2144 34.9345 37.3175 34.8444C37.4206 34.7542 37.4721 34.6126 37.4721 34.4194C37.4721 33.1703 37.6267 31.5864 37.936 29.6549C37.9231 29.5905 37.82 29.539 37.6267 29.5261Z" fill="#D6A07E"/>
<path d="M24.4832 32.9773C24.5862 33.5053 24.7924 33.853 25.0888 34.0461C25.3852 34.2393 25.8619 34.3294 26.532 34.3294C26.5707 34.3294 26.5835 34.4453 26.5835 34.6642C26.5835 34.8831 26.5707 34.999 26.532 34.999C26.0295 34.999 25.6429 34.9861 25.3594 34.9475L23.6198 34.896L21.9575 34.9475C21.6612 34.9861 21.2488 34.999 20.7463 34.999C20.6947 34.999 20.6689 34.8831 20.6689 34.6642C20.6689 34.4453 20.6947 34.3294 20.7463 34.3294C21.3906 34.3294 21.8673 34.2393 22.1766 34.0461C22.4858 33.8658 22.692 33.4924 22.808 32.9516C22.924 32.4107 22.9755 31.5737 22.9755 30.4534V4.53177C22.9755 3.41146 22.9111 2.58732 22.808 2.07224C22.692 1.54428 22.4858 1.18372 22.1766 0.977685C21.8673 0.771651 21.3906 0.668633 20.7463 0.668633C20.6947 0.668633 20.6689 0.55274 20.6689 0.333829C20.6689 0.114918 20.6947 -0.000976562 20.7463 -0.000976562L21.9575 0.0505311C22.6534 0.127794 23.2075 0.166426 23.6198 0.166426C24.0837 0.166426 24.6636 0.127794 25.3594 0.0505311L26.532 -0.000976562C26.5707 -0.000976562 26.5835 0.114918 26.5835 0.333829C26.5835 0.55274 26.5707 0.668633 26.532 0.668633C25.8877 0.668633 25.4109 0.784528 25.1017 1.00344C24.7924 1.22235 24.5862 1.60866 24.4832 2.1495C24.3801 2.69034 24.3156 3.52735 24.3156 4.64766V30.4534C24.3285 31.6123 24.3801 32.4622 24.4832 32.9773Z" fill="#D6A07E"/>
<path d="M37.8715 0.333829C37.8715 0.55274 37.8199 0.668633 37.704 0.668633C36.4412 0.668633 35.3845 0.939053 34.5469 1.47989C33.7094 2.02073 32.9749 3.02515 32.3435 4.51889L20.0761 34.7801C20.0375 34.9218 19.8313 34.999 19.4576 34.999C19.1613 34.999 18.9551 34.9218 18.8391 34.7801L5.08993 4.62191C4.45852 3.16679 3.77557 2.1495 3.05397 1.55715C2.33236 0.964808 1.39169 0.668633 0.231969 0.668633C0.115997 0.668633 0.0644531 0.55274 0.0644531 0.333829C0.0644531 0.114918 0.115997 -0.000976562 0.231969 -0.000976562L2.62873 0.0505311C3.67249 0.127794 4.44564 0.166426 4.97396 0.166426C6.05637 0.166426 7.33206 0.127794 8.82682 0.0505311L11.2236 -0.000976562C11.3396 -0.000976562 11.3911 0.114918 11.3911 0.333829C11.3911 0.55274 11.3396 0.668633 11.2236 0.668633C10.0767 0.668633 9.20051 0.797404 8.63353 1.05495C8.05367 1.31249 7.77018 1.76319 7.77018 2.39417C7.77018 2.84487 7.9377 3.39858 8.27273 4.06819L20.4241 30.8655L31.1837 4.18408C31.4415 3.55311 31.5703 3.01227 31.5703 2.57445C31.5703 1.90484 31.2224 1.42838 30.5394 1.11933C29.8565 0.823158 28.7225 0.668633 27.1634 0.668633C27.0474 0.668633 26.9958 0.55274 26.9958 0.333829C26.9958 0.114918 27.0474 -0.000976562 27.1634 -0.000976562L29.3926 0.0505311C30.6554 0.127794 31.7765 0.166426 32.7429 0.166426C33.529 0.166426 34.3923 0.127794 35.3587 0.0505311L37.704 -0.000976562C37.8199 -0.000976562 37.8715 0.114918 37.8715 0.333829Z" fill="#616161"/>
</svg>
